<svg xmlns="http://www.w3.org/2000/svg" viewBox="0 0 20 20"><defs><style>.cls-1{fill:#fff;}</style></defs><title>Ресурс 9</title><g id="Слой_2" data-name="Слой 2"><g id="Layer_1" data-name="Layer 1"><path class="cls-1" d="M19.91,17.43l-1.93-6A2.13,2.13,0,0,0,15.92,10H13.09l.44-1a11.08,11.08,0,0,0,1.34-4,5,5,0,1,0-10,0A9.68,9.68,0,0,0,6.09,8.84L6.62,10H4.08A2.13,2.13,0,0,0,2,11.43l-1.93,6A2,2,0,0,0,2.15,20h15.7A2,2,0,0,0,19.91,17.43ZM9.88,2a3,3,0,0,1,3,3,7.23,7.23,0,0,1-.82,2.42l-.35.78c-.85,1.95-1.43,3.23-1.83,4.07-.41-.89-1-2.23-2-4.26l-.16-.34A7.25,7.25,0,0,1,6.88,5,3,3,0,0,1,9.88,2Zm8,16H2.15A.25.25,0,0,1,2,18l1.9-5.91A.22.22,0,0,1,4.08,12H7.54C8.88,14.91,9,15,9,15H9a1,1,0,0,0,1.73,0s.14,0,1.5-3h3.72a.33.33,0,0,1,.15,0h0L18,18A.25.25,0,0,1,17.85,18Z"/><circle class="cls-1" cx="9.88" cy="5.03" r="1"/></g></g></svg>