<svg xmlns="http://www.w3.org/2000/svg" viewBox="0 0 20 20"><defs><style>.cls-1{fill:#00e646;}</style></defs><title>Ресурс 2</title><g id="Слой_2" data-name="Слой 2"><g id="Layer_1" data-name="Layer 1"><path class="cls-1" d="M12,18H3a1,1,0,0,1-1-1V3A1,1,0,0,1,3,2h9a1,1,0,0,0,0-2H3A3,3,0,0,0,0,3V17a3,3,0,0,0,3,3h9a1,1,0,0,0,0-2Z"/><path class="cls-1" d="M19.92,9.38a1,1,0,0,0-.22-1.09l-4-4a1,1,0,0,0-1.41,1.41L16.59,8H7a1,1,0,0,0,0,2h9.59l-2.29,2.29a1,1,0,1,0,1.41,1.41l4-4A1,1,0,0,0,19.92,9.38Z"/></g></g></svg>