<svg xmlns="http://www.w3.org/2000/svg" viewBox="0 0 24 16"><defs><style>.cls-1{fill:#fff;}</style></defs><title>Ресурс 3</title><g id="Слой_2" data-name="Слой 2"><g id="Layer_1" data-name="Layer 1"><path class="cls-1" d="M12,2c4.88,0,8.59,4.17,10,6-1.4,1.83-5.1,6-10,6S3.41,9.83,2,8c1.4-1.83,5.1-6,10-6m0-2C6.26,0,2.08,4.61.4,6.83a1.93,1.93,0,0,0,0,2.34C2.08,11.39,6.26,16,12,16s9.92-4.61,11.6-6.83a1.93,1.93,0,0,0,0-2.34C21.92,4.61,17.74,0,12,0Zm0,6a2,2,0,1,1-2,2,2,2,0,0,1,2-2m0-2a4,4,0,1,0,4,4,4,4,0,0,0-4-4Z"/></g></g></svg>