<?xml version="1.0" encoding="utf-8"?>
<!-- Generator: Adobe Illustrator 20.1.0, SVG Export Plug-In . SVG Version: 6.00 Build 0)  -->
<svg version="1.1" id="Layer_1" xmlns="http://www.w3.org/2000/svg" xmlns:xlink="http://www.w3.org/1999/xlink" x="0px" y="0px"
	 viewBox="0 0 240 30.9" style="enable-background:new 0 0 240 30.9;" xml:space="preserve">
<style type="text/css">
	.st0{fill:#FFFFFF;}
	.st1{fill:#00C846;}
</style>
<g>
	<path class="st0" d="M14.5,0.5H1c-0.6,0-1,0.5-1,1v21.2c0,0.6,0.5,1,1,1h3.1c0.6,0,1-0.5,1-1v-17h9.3c0.6,0,1-0.5,1-1V1.5
		C15.5,1,15,0.5,14.5,0.5z"/>
	<path class="st0" d="M34.3,0.6H19.6c-0.6,0-1,0.5-1,1v21.1c0,0.6,0.5,1,1,1h14.7c0.6,0,1-0.5,1-1v-3.1c0-0.6-0.5-1-1-1H23.7v-3.9
		h5.4c0.6,0,1-0.5,1-1v-3.1c0-0.6-0.5-1-1-1h-5.4V5.7h10.6c0.6,0,1-0.5,1-1v-3C35.4,1,34.9,0.6,34.3,0.6z"/>
	<path class="st0" d="M150.2,0.6h-14.7c-0.6,0-1,0.5-1,1v21.1c0,0.6,0.5,1,1,1h14.7c0.6,0,1-0.5,1-1v-3.1c0-0.6-0.5-1-1-1h-10.6
		v-3.9h5.4c0.6,0,1-0.5,1-1v-3.1c0-0.6-0.5-1-1-1h-5.4V5.7h10.6c0.6,0,1-0.5,1-1v-3C151.2,1,150.8,0.6,150.2,0.6z"/>
	<path class="st0" d="M95.5,0.3c-6.6,0-11.9,5.2-11.9,11.9S88.9,24,95.5,24s11.9-5.2,11.9-11.9S102,0.3,95.5,0.3z M95.5,18.8
		c-3.7,0-6.7-2.7-6.7-6.7s3-6.7,6.7-6.7c3.7,0,6.7,2.7,6.7,6.7S99.2,18.8,95.5,18.8z"/>
	<path class="st0" d="M207.5,0.3c-6.6,0-11.9,5.2-11.9,11.9S200.9,24,207.5,24c6.6,0,11.9-5.2,11.9-11.9S214,0.3,207.5,0.3z
		 M207.5,18.8c-3.7,0-6.7-2.7-6.7-6.7s3-6.7,6.7-6.7c3.7,0,6.7,2.7,6.7,6.7S211.2,18.8,207.5,18.8z"/>
	<path class="st0" d="M194.1,0.5h-16c-0.6,0-1,0.5-1,1v3.1c0,0.6,0.5,1,1,1h5.4v17c0,0.6,0.5,1,1,1h3.1c0.6,0,1-0.5,1-1v-17h5.4
		c0.6,0,1-0.5,1-1V1.5C195.1,1,194.6,0.5,194.1,0.5z"/>
	<path class="st0" d="M129,0.5h-16c-0.6,0-1,0.5-1,1v13.2c0,2.2-1,3.7-3,4.1c-0.5,0.1-0.9,0.5-0.9,1v2.8c0,0.6,0.5,1.1,1.1,1
		c5.6-0.4,7.9-3.8,7.9-9.8V5.7h7.7v17c0,0.6,0.5,1,1,1h3.1c0.6,0,1-0.5,1-1V1.5C130.1,1,129.6,0.5,129,0.5z"/>
	<path class="st0" d="M230.8,0.5h-3.7h-2.6H223c-0.6,0-1,0.5-1,1v21.2c0,0.6,0.5,1,1,1h3.1c0.6,0,1-0.5,1-1v-4.1h3.9
		c4.9,0,8.9-3.9,9-8.9C240.1,4.7,235.9,0.5,230.8,0.5z M231,13.4h-3.9V5.7h3.9c2.1,0,3.9,1.7,3.9,3.9
		C234.8,11.7,233.1,13.4,231,13.4z"/>
	<path class="st0" d="M173.7,0.5h-3.2c-0.4,0-0.8,0.2-0.9,0.6c-0.5,1.1-1.6,3.5-2.4,4.9c-0.9,1.9-2,3.8-5.9,3.8h-0.8V1.5
		c0-0.6-0.5-1-1-1h-3.1c-0.6,0-1,0.5-1,1v21.2c0,0.6,0.5,1,1,1h3.1c0.6,0,1-0.5,1-1v-8h0.9c1.1,0,2.1-0.1,3.1-0.4l4.8,8.9
		c0.2,0.3,0.5,0.5,0.9,0.5h3.3c0.8,0,1.3-0.8,0.9-1.5l-5.6-10.1c1-0.8,1.8-1.9,2.4-3.1c1-2,2.6-5.2,3.4-7.1
		C174.9,1.3,174.4,0.5,173.7,0.5z"/>
	<path class="st0" d="M82,0.5h-3.1c-0.4,0-0.7,0.2-0.9,0.6c-0.5,1-1.6,3.3-2.3,4.7c-0.9,1.9-2,3.8-5.9,3.8h-0.8v-8c0-0.6-0.5-1-1-1
		h-3.1c-0.6,0-1,0.5-1,1v21.2c0,0.6,0.5,1,1,1h3.1c0.6,0,1-0.5,1-1v-8h0.9c1.1,0,2.1-0.1,3.1-0.4l4.8,8.9c0.2,0.3,0.5,0.5,0.9,0.5
		h3.3c0.8,0,1.3-0.8,0.9-1.5L77.1,12c0.9-0.8,1.6-1.8,2.2-3c1-1.9,2.7-5.1,3.6-7C83.3,1.3,82.8,0.5,82,0.5z"/>
	<path class="st0" d="M48.5,0c-6.7,0-12.1,5.3-12.1,12.1c0,3.2,1.2,6,3.1,8.1l8.3,10.3c0.4,0.5,1.2,0.5,1.6,0l8.3-10.3
		c1.9-2.1,3.1-4.9,3.1-8.1C60.6,5.3,55.2,0,48.5,0z"/>
	<path class="st1" d="M47.7,19.3c-2.1-0.2-3.9-1.2-5-2.8c1-0.6,2.8-1.1,5-1.2V19.3z M47.7,13.6c-2.2,0.1-4.4,0.6-5.9,1.4
		c-0.4-0.9-0.5-1.8-0.5-2.9c0-1.1,0.2-2,0.5-2.9c1.5,0.8,3.7,1.3,5.9,1.4V13.6z M47.7,8.9c-2.3-0.1-4-0.6-5-1.2c1.2-1.6,3-2.6,5-2.8
		V8.9z M49.4,5c2,0.2,3.8,1.2,4.9,2.8c-1,0.6-2.7,1.1-4.9,1.2V5z M49.4,19.3v-3.9c2.2,0.1,3.9,0.6,4.9,1.2
		C53.2,18.1,51.5,19,49.4,19.3z M55.2,15c-1.5-0.8-3.6-1.3-5.8-1.4v-3c2.2-0.1,4.3-0.6,5.8-1.4c0.4,0.9,0.5,1.8,0.5,2.9
		C55.7,13.2,55.5,14.2,55.2,15z"/>
</g>
</svg>
