<svg xmlns="http://www.w3.org/2000/svg" viewBox="0 0 116.54 15"><defs><style>.cls-1{fill:#0064a0;}.cls-2{fill:#00c846;}</style></defs><title>Ресурс 7</title><g id="Слой_2" data-name="Слой 2"><g id="Layer_1" data-name="Layer 1"><path class="cls-1" d="M7,.25H.5a.5.5,0,0,0-.5.5V11a.5.5,0,0,0,.5.5H2a.5.5,0,0,0,.5-.5V2.76H7a.5.5,0,0,0,.5-.5V.75A.5.5,0,0,0,7,.25Z"/><path class="cls-1" d="M16.67.28H9.52a.5.5,0,0,0-.5.5V11a.5.5,0,0,0,.5.5h7.14a.5.5,0,0,0,.5-.5V9.52a.5.5,0,0,0-.5-.5H11.53V7.14h2.63a.5.5,0,0,0,.5-.5V5.14a.5.5,0,0,0-.5-.5H11.53V2.76h5.14a.5.5,0,0,0,.5-.5V.78A.5.5,0,0,0,16.67.28Z"/><path class="cls-1" d="M72.93.28H65.79a.5.5,0,0,0-.5.5V11a.5.5,0,0,0,.5.5h7.14a.5.5,0,0,0,.5-.5V9.52a.5.5,0,0,0-.5-.5H67.79V7.14h2.63a.5.5,0,0,0,.5-.5V5.14a.5.5,0,0,0-.5-.5H67.79V2.76h5.14a.5.5,0,0,0,.5-.5V.78A.5.5,0,0,0,72.93.28Z"/><path class="cls-1" d="M46.37.13A5.72,5.72,0,0,0,40.6,5.89a5.76,5.76,0,1,0,11.53,0A5.72,5.72,0,0,0,46.37.13Zm0,9a3.15,3.15,0,0,1-3.26-3.26,3.26,3.26,0,0,1,6.52,0A3.15,3.15,0,0,1,46.37,9.15Z"/><path class="cls-1" d="M100.75.13A5.72,5.72,0,0,0,95,5.89a5.76,5.76,0,1,0,11.53,0A5.72,5.72,0,0,0,100.75.13Zm0,9A3.15,3.15,0,0,1,97.5,5.89a3.26,3.26,0,0,1,6.52,0A3.15,3.15,0,0,1,100.75,9.15Z"/><path class="cls-1" d="M94.24.25H86.47a.5.5,0,0,0-.5.5v1.5a.5.5,0,0,0,.5.5H89.1V11a.5.5,0,0,0,.5.5h1.5a.5.5,0,0,0,.5-.5V2.76h2.63a.5.5,0,0,0,.5-.5V.75A.5.5,0,0,0,94.24.25Z"/><path class="cls-1" d="M62.66.25H54.89a.5.5,0,0,0-.5.5V7.17a1.76,1.76,0,0,1-1.46,2,.5.5,0,0,0-.42.49V11a.5.5,0,0,0,.54.5c2.74-.18,3.85-1.83,3.85-4.78v-4h3.76V11a.5.5,0,0,0,.5.5h1.5a.5.5,0,0,0,.5-.5V.75A.5.5,0,0,0,62.66.25Z"/><path class="cls-1" d="M112.07.25h-3.8a.5.5,0,0,0-.5.5V11a.5.5,0,0,0,.5.5h1.5a.5.5,0,0,0,.5-.5V9h1.88a4.39,4.39,0,0,0,4.39-4.3A4.46,4.46,0,0,0,112.07.25Zm.09,6.27h-1.88V2.76h1.88a1.88,1.88,0,0,1,0,3.76Z"/><path class="cls-1" d="M84.33.25H82.79a.5.5,0,0,0-.45.29c-.25.54-.8,1.7-1.14,2.38a2.76,2.76,0,0,1-2.87,1.85h-.38v-4a.5.5,0,0,0-.5-.5h-1.5a.5.5,0,0,0-.5.5V11a.5.5,0,0,0,.5.5h1.5a.5.5,0,0,0,.5-.5V7.14h.46A6,6,0,0,0,79.89,7l2.32,4.3a.5.5,0,0,0,.44.26h1.59a.5.5,0,0,0,.44-.75l-2.73-4.9a5.12,5.12,0,0,0,1.17-1.49c.5-.95,1.24-2.51,1.67-3.42A.5.5,0,0,0,84.33.25Z"/><path class="cls-1" d="M39.81.25H38.29a.5.5,0,0,0-.45.28L36.71,2.79a2.76,2.76,0,0,1-2.87,1.85h-.38V.75a.5.5,0,0,0-.5-.5h-1.5a.5.5,0,0,0-.5.5V11a.5.5,0,0,0,.5.5H33a.5.5,0,0,0,.5-.5V7.14h.46A5.77,5.77,0,0,0,35.4,7l2.32,4.31a.5.5,0,0,0,.44.26h1.59a.5.5,0,0,0,.44-.75l-2.77-5A5.39,5.39,0,0,0,38.5,4.39L40.26,1A.5.5,0,0,0,39.81.25Z"/><path class="cls-2" d="M23.56,0a5.84,5.84,0,0,0-5.89,5.89,5.86,5.86,0,0,0,1.49,3.93l4,5a.49.49,0,0,0,.76,0l4-5a5.85,5.85,0,0,0,1.49-3.93A5.84,5.84,0,0,0,23.56,0Zm0,9.4a3.51,3.51,0,1,1,3.51-3.51A3.51,3.51,0,0,1,23.56,9.4Z"/></g></g></svg>