<?xml version="1.0" encoding="utf-8"?>
<!-- Generator: Adobe Illustrator 20.1.0, SVG Export Plug-In . SVG Version: 6.00 Build 0)  -->
<svg version="1.1" id="Layer_1" xmlns="http://www.w3.org/2000/svg" xmlns:xlink="http://www.w3.org/1999/xlink" x="0px" y="0px"
	 viewBox="0 0 20 20" style="enable-background:new 0 0 20 20;" xml:space="preserve">
<style type="text/css">
	.st0{fill:#FFFFFF;}
</style>
<g>
	<g>
		<path class="st0" d="M17,5H3C2.4,5,2,4.6,2,4s0.4-1,1-1h14c0.6,0,1,0.4,1,1S17.6,5,17,5z"/>
	</g>
	<g>
		<path class="st0" d="M17,11H3c-0.6,0-1-0.4-1-1s0.4-1,1-1h14c0.6,0,1,0.4,1,1S17.6,11,17,11z"/>
	</g>
	<g>
		<path class="st0" d="M17,17H3c-0.6,0-1-0.4-1-1c0-0.6,0.4-1,1-1h14c0.6,0,1,0.4,1,1C18,16.6,17.6,17,17,17z"/>
	</g>
</g>
</svg>
