<svg xmlns="http://www.w3.org/2000/svg" viewBox="0 0 20 20"><defs><style>.cls-1{fill:#969696;}</style></defs><title>Ресурс 1</title><g id="Слой_2" data-name="Слой 2"><g id="Layer_1" data-name="Layer 1"><path class="cls-1" d="M19.41,6.27,13.73.59a2,2,0,0,0-2.84,0L0,11.48V18a2,2,0,0,0,2,2H8.52L19.41,9.11A2,2,0,0,0,19.41,6.27ZM12.31,2h0l2.13,2.14L5.63,13a8.46,8.46,0,0,0-2.85-1.43ZM2,18V13.38A6.33,6.33,0,0,1,5,15a6.36,6.36,0,0,1,1.64,3Zm6.48-.78A8.47,8.47,0,0,0,7,14.37l8.81-8.81L18,7.7Z"/></g></g></svg>