<svg xmlns="http://www.w3.org/2000/svg" viewBox="0 0 40 59"><defs><style>.cls-1{fill:#0082d2;}.cls-2{fill:#00a0f0;}.cls-3{fill:#fff;}</style></defs><title>Ресурс 6</title><g id="Слой_2" data-name="Слой 2"><g id="Layer_1" data-name="Layer 1"><circle class="cls-1" cx="20" cy="55" r="4"/><path class="cls-2" d="M5.46,33.08C3.33,30,.5,25.23.5,20A19.29,19.29,0,0,1,20,.5,19.29,19.29,0,0,1,39.5,20c0,5-1.82,8.56-5,13.08l-14.65,21Z"/><path class="cls-1" d="M20,1A18.8,18.8,0,0,1,39,20c0,4.85-1.79,8.36-4.87,12.79L19.89,53.24l-14-20.45C3.78,29.74,1,25.1,1,20A18.8,18.8,0,0,1,20,1m0-1A19.83,19.83,0,0,0,0,20c0,5.22,2.69,9.93,5,13.36L19.88,55,35,33.36C38,29,40,25.22,40,20A19.83,19.83,0,0,0,20,0Z"/><circle class="cls-3" cx="19.88" cy="20" r="8"/></g></g></svg>