<?xml version="1.0" encoding="utf-8"?>
<!-- Generator: Adobe Illustrator 20.1.0, SVG Export Plug-In . SVG Version: 6.00 Build 0)  -->
<svg version="1.1" id="Layer_1" xmlns="http://www.w3.org/2000/svg" xmlns:xlink="http://www.w3.org/1999/xlink" x="0px" y="0px"
	 viewBox="0 0 60 60" style="enable-background:new 0 0 60 60;" xml:space="preserve">
<style type="text/css">
	.st0{opacity:0.24;fill:#00E646;}
	.st1{opacity:0.72;fill:#00E646;}
	.st2{opacity:0.16;fill:#00E646;}
	.st3{opacity:0.64;fill:#00E646;}
	.st4{opacity:8.000000e-02;fill:#00E646;}
	.st5{opacity:0.56;fill:#00E646;}
	.st6{fill:#00E646;}
	.st7{opacity:0.48;fill:#00E646;}
	.st8{opacity:0.88;fill:#00E646;}
	.st9{opacity:0.4;fill:#00E646;}
	.st10{opacity:0.8;fill:#00E646;}
	.st11{opacity:0.32;fill:#00E646;}
</style>
<g>
	<g>
		<path class="st0" d="M30,13.5c-1.7,0-3-1.3-3-3V3c0-1.7,1.3-3,3-3s3,1.3,3,3v7.5C33,12.2,31.7,13.5,30,13.5z"/>
		<path class="st1" d="M30,60c-1.7,0-3-1.3-3-3v-7.5c0-1.7,1.3-3,3-3s3,1.3,3,3V57C33,58.7,31.7,60,30,60z"/>
	</g>
	<g>
		<path class="st2" d="M20.3,16.1c-1,0-2-0.5-2.6-1.5l-3.8-6.5C13.1,6.7,13.6,4.8,15,4c1.4-0.8,3.3-0.3,4.1,1.1l3.8,6.5
			c0.8,1.4,0.3,3.3-1.1,4.1C21.3,16,20.8,16.1,20.3,16.1z"/>
		<path class="st3" d="M43.5,56.4c-1,0-2-0.5-2.6-1.5l-3.8-6.5c-0.8-1.4-0.3-3.3,1.1-4.1c1.4-0.8,3.3-0.3,4.1,1.1l3.8,6.5
			c0.8,1.4,0.3,3.3-1.1,4.1C44.5,56.3,44,56.4,43.5,56.4z"/>
	</g>
	<g>
		<path class="st4" d="M13.1,23.3c-0.5,0-1-0.1-1.5-0.4l-6.5-3.8C3.7,18.3,3.2,16.4,4,15c0.8-1.4,2.7-1.9,4.1-1.1l6.5,3.8
			c1.4,0.8,1.9,2.7,1.1,4.1C15.2,22.7,14.1,23.3,13.1,23.3z"/>
		<path class="st5" d="M53.4,46.5c-0.5,0-1-0.1-1.5-0.4l-6.5-3.8c-1.4-0.8-1.9-2.7-1.1-4.1c0.8-1.4,2.7-1.9,4.1-1.1l6.5,3.8
			c1.4,0.8,1.9,2.7,1.1,4.1C55.4,46,54.4,46.5,53.4,46.5z"/>
	</g>
	<g>
		<path class="st6" d="M10.5,33H3c-1.7,0-3-1.3-3-3s1.3-3,3-3h7.5c1.7,0,3,1.3,3,3S12.2,33,10.5,33z"/>
		<path class="st7" d="M57,33h-7.5c-1.7,0-3-1.3-3-3s1.3-3,3-3H57c1.7,0,3,1.3,3,3S58.7,33,57,33z"/>
	</g>
	<g>
		<path class="st8" d="M6.6,46.5c-1,0-2-0.5-2.6-1.5c-0.8-1.4-0.3-3.3,1.1-4.1l6.5-3.8c1.4-0.8,3.3-0.3,4.1,1.1
			c0.8,1.4,0.3,3.3-1.1,4.1l-6.5,3.8C7.6,46.4,7.1,46.5,6.6,46.5z"/>
		<path class="st9" d="M46.9,23.3c-1,0-2-0.5-2.6-1.5c-0.8-1.4-0.3-3.3,1.1-4.1l6.5-3.8c1.4-0.8,3.3-0.3,4.1,1.1
			c0.8,1.4,0.3,3.3-1.1,4.1l-6.5,3.8C47.9,23.1,47.4,23.3,46.9,23.3z"/>
	</g>
	<g>
		<path class="st10" d="M16.5,56.4c-0.5,0-1-0.1-1.5-0.4c-1.4-0.8-1.9-2.7-1.1-4.1l3.8-6.5c0.8-1.4,2.7-1.9,4.1-1.1
			c1.4,0.8,1.9,2.7,1.1,4.1l-3.8,6.5C18.5,55.8,17.5,56.4,16.5,56.4z"/>
		<path class="st11" d="M39.7,16.1c-0.5,0-1-0.1-1.5-0.4c-1.4-0.8-1.9-2.7-1.1-4.1l3.8-6.5C41.7,3.7,43.6,3.2,45,4
			c1.4,0.8,1.9,2.7,1.1,4.1l-3.8,6.5C41.8,15.6,40.8,16.1,39.7,16.1z"/>
	</g>
</g>
</svg>
