<?xml version="1.0" encoding="utf-8"?>
<!-- Generator: Adobe Illustrator 20.1.0, SVG Export Plug-In . SVG Version: 6.00 Build 0)  -->
<svg version="1.1" id="Layer_1" xmlns="http://www.w3.org/2000/svg" xmlns:xlink="http://www.w3.org/1999/xlink" x="0px" y="0px"
	 viewBox="0 0 50 50" style="enable-background:new 0 0 50 50;" xml:space="preserve">
<style type="text/css">
	.st0{fill:#FFFFFF;}
	.st1{fill:#231F20;}
	.st2{fill:#D20000;}
</style>
<g>
	<circle class="st0" cx="25" cy="45" r="5"/>
	<path class="st1" d="M25,41c2.2,0,4,1.8,4,4s-1.8,4-4,4s-4-1.8-4-4S22.8,41,25,41 M25,40c-2.8,0-5,2.2-5,5s2.2,5,5,5s5-2.2,5-5
		S27.8,40,25,40L25,40z M25,43c-1.1,0-2,0.9-2,2s0.9,2,2,2s2-0.9,2-2S26.1,43,25,43z"/>
	<path class="st2" d="M45,35H30l-5,10l-5-10H5c-2.8,0-5-2.2-5-5V5c0-2.8,2.2-5,5-5h40c2.8,0,5,2.2,5,5v25C50,32.8,47.8,35,45,35z"/>
</g>
</svg>
