<svg xmlns="http://www.w3.org/2000/svg" viewBox="0 0 117.54 16"><defs><style>.cls-1{fill:#fff;}.cls-1,.cls-2{stroke:#fff;}.cls-1,.cls-2,.cls-3{stroke-miterlimit:10;}.cls-2{fill:#f1f2f2;}.cls-3{fill:#00c846;stroke:#00a03c;}</style></defs><title>Ресурс 3</title><g id="Слой_2" data-name="Слой 2"><g id="Layer_1" data-name="Layer 1"><path class="cls-1" d="M7.52.75H1a.5.5,0,0,0-.5.5V11.53A.5.5,0,0,0,1,12h1.5a.5.5,0,0,0,.5-.5V3.26H7.52a.5.5,0,0,0,.5-.5V1.25A.5.5,0,0,0,7.52.75Z"/><path class="cls-2" d="M17.17.78H10a.5.5,0,0,0-.5.5V11.53a.5.5,0,0,0,.5.5h7.14a.5.5,0,0,0,.5-.5V10a.5.5,0,0,0-.5-.5H12V7.64h2.63a.5.5,0,0,0,.5-.5V5.64a.5.5,0,0,0-.5-.5H12V3.26h5.14a.5.5,0,0,0,.5-.5V1.28A.5.5,0,0,0,17.17.78Z"/><path class="cls-2" d="M73.43.78H66.29a.5.5,0,0,0-.5.5V11.53a.5.5,0,0,0,.5.5h7.14a.5.5,0,0,0,.5-.5V10a.5.5,0,0,0-.5-.5H68.29V7.64h2.63a.5.5,0,0,0,.5-.5V5.64a.5.5,0,0,0-.5-.5H68.29V3.26h5.14a.5.5,0,0,0,.5-.5V1.28A.5.5,0,0,0,73.43.78Z"/><path class="cls-1" d="M46.87.63A5.72,5.72,0,0,0,41.1,6.39a5.76,5.76,0,1,0,11.53,0A5.72,5.72,0,0,0,46.87.63Zm0,9a3.15,3.15,0,0,1-3.26-3.26,3.26,3.26,0,0,1,6.52,0A3.15,3.15,0,0,1,46.87,9.65Z"/><path class="cls-1" d="M101.25.63a5.72,5.72,0,0,0-5.76,5.76,5.76,5.76,0,1,0,11.53,0A5.72,5.72,0,0,0,101.25.63Zm0,9A3.15,3.15,0,0,1,98,6.39a3.26,3.26,0,0,1,6.52,0A3.15,3.15,0,0,1,101.25,9.65Z"/><path class="cls-2" d="M94.74.75H87a.5.5,0,0,0-.5.5v1.5a.5.5,0,0,0,.5.5H89.6v8.27a.5.5,0,0,0,.5.5h1.5a.5.5,0,0,0,.5-.5V3.26h2.63a.5.5,0,0,0,.5-.5V1.25A.5.5,0,0,0,94.74.75Z"/><path class="cls-1" d="M63.16.75H55.39a.5.5,0,0,0-.5.5V7.67a1.76,1.76,0,0,1-1.46,2,.5.5,0,0,0-.42.49v1.37a.5.5,0,0,0,.54.5c2.74-.18,3.85-1.83,3.85-4.78v-4h3.76v8.27a.5.5,0,0,0,.5.5h1.5a.5.5,0,0,0,.5-.5V1.25A.5.5,0,0,0,63.16.75Z"/><path class="cls-1" d="M112.57.75h-3.8a.5.5,0,0,0-.5.5V11.53a.5.5,0,0,0,.5.5h1.5a.5.5,0,0,0,.5-.5v-2h1.88A4.39,4.39,0,0,0,117,5.22,4.46,4.46,0,0,0,112.57.75ZM112.66,7h-1.88V3.26h1.88a1.88,1.88,0,0,1,0,3.76Z"/><path class="cls-1" d="M84.83.75H83.29a.5.5,0,0,0-.45.29c-.25.54-.8,1.7-1.14,2.38a2.76,2.76,0,0,1-2.87,1.85h-.38v-4a.5.5,0,0,0-.5-.5h-1.5a.5.5,0,0,0-.5.5V11.53a.5.5,0,0,0,.5.5h1.5a.5.5,0,0,0,.5-.5V7.64h.46a6,6,0,0,0,1.48-.18l2.32,4.3a.5.5,0,0,0,.44.26h1.59a.5.5,0,0,0,.44-.75l-2.73-4.9a5.14,5.14,0,0,0,1.17-1.49c.49-.95,1.24-2.51,1.67-3.42A.5.5,0,0,0,84.83.75Z"/><path class="cls-1" d="M40.31.75H38.79a.5.5,0,0,0-.45.28L37.21,3.29a2.76,2.76,0,0,1-2.87,1.85H34V1.25a.5.5,0,0,0-.5-.5H32a.5.5,0,0,0-.5.5V11.53a.5.5,0,0,0,.5.5h1.5a.5.5,0,0,0,.5-.5V7.64h.46a5.77,5.77,0,0,0,1.48-.18l2.32,4.31a.5.5,0,0,0,.44.26h1.59a.5.5,0,0,0,.44-.75l-2.77-5A5.39,5.39,0,0,0,39,4.89l1.76-3.41A.5.5,0,0,0,40.31.75Z"/><path class="cls-3" d="M24.06.5a5.84,5.84,0,0,0-5.89,5.89,5.86,5.86,0,0,0,1.49,3.93l4,5a.49.49,0,0,0,.76,0l4-5a5.85,5.85,0,0,0,1.49-3.93A5.84,5.84,0,0,0,24.06.5Zm0,9.4a3.51,3.51,0,1,1,3.51-3.51A3.51,3.51,0,0,1,24.06,9.9Z"/></g></g></svg>